<?xml version="1.0" encoding="UTF-8"?>
<svg id="Layer_1" data-name="Layer 1" xmlns="http://www.w3.org/2000/svg" viewBox="0 0 584.23 439.12">
  <defs>
    <style>
      .cls-1 {
        fill: #27aae1;
      }

      .cls-1, .cls-2, .cls-3, .cls-4, .cls-5, .cls-6 {
        stroke-width: 0px;
      }

      .cls-2 {
        fill: #231f20;
      }

      .cls-3 {
        fill: #00a651;
      }

      .cls-4 {
        fill: #fff;
      }

      .cls-5 {
        fill: #ffde17;
      }

      .cls-6 {
        fill: #006088;
      }
    </style>
  </defs>
  <circle class="cls-6" cx="263.39" cy="291.05" r="148.07"/>
  <path class="cls-1" d="M435.25,285.69c0,23.06-5.27,44.9-14.68,64.36-20.3,42.01-59.86,72.96-107.22,81.41-8.49,1.51-17.23,2.3-26.16,2.3-81.78,0-148.07-66.29-148.07-148.07,0-64.24,40.91-118.92,98.1-139.42,15.61-5.59,32.43-8.64,49.97-8.64,52.65,0,98.89,27.49,125.13,68.9h.01c14.52,22.89,22.92,50.04,22.92,79.16Z"/>
  <path class="cls-4" d="M236.6,296.92c14.44,24.29,37.46,38.94,60.75,38.66s46.34-15.49,60.84-40.13l-121.59,1.47Z"/>
  <ellipse class="cls-4" cx="267.3" cy="235.34" rx="20.42" ry="16.56"/>
  <ellipse class="cls-4" cx="332.28" cy="230.98" rx="20.42" ry="16.56"/>
  <path class="cls-2" d="M339.37,223.31c-5.42.65-11.09,1.38-15.57,4.5s-7.24,9.44-4.59,14.21c2.85,5.13,10.07,5.82,15.73,4.3,3.78-1.01,8.03-3.85,7.39-7.71-.34-2.02-2.03-3.6-3.93-4.35s-4-.78-6.05-.71c-1.92.06-3.93.24-5.56,1.26s-2.71,3.16-1.95,4.92,3.74,2.18,4.56.44l9.97-16.87Z"/>
  <path class="cls-2" d="M275.23,226.47c-5.42.65-11.09,1.38-15.57,4.5-4.48,3.12-7.24,9.44-4.59,14.21,2.85,5.13,10.07,5.82,15.73,4.3,3.78-1.01,8.03-3.85,7.39-7.71-.34-2.02-2.03-3.6-3.93-4.35s-4-.78-6.05-.71c-1.92.06-3.93.24-5.56,1.26s-2.71,3.16-1.95,4.92,3.74,2.18,4.56.44l9.97-16.87Z"/>
  <path class="cls-3" d="M326.19,417.21c-34.92,14.98-75.82,12.39-104.76-6.63-4.99-3.28-9.66-7.02-13.53-11.46,3.27-6.51,12.04-8.58,19.26-8.38s14.73,1.63,21.56-1.41c-2.76-4.71-5.52-9.43-8.29-14.14-1.8-3.07-3.66-6.45-3-10.14,1.3-7.25,11.36-10.61,18.55-9,7.19,1.62,13.03,6.24,20.18,7.97,14.98,3.64,32.89-5.92,47.04-.38,8.82,3.45,14.19,12.18,23.21,15.24,5.46,1.85,12.92,2.34,14.34,7.75,1.33,5.06-4.02,10-8.92,13.09-8.66,5.45-18,9.82-27.66,12.92.75,1.57,1.49,3.14,2.24,4.72l-.23-.14Z"/>
  <path class="cls-3" d="M435.25,284.7c0,23.06-5.27,44.9-14.68,64.36-.15-.03-.3-.05-.45-.06-3-.25-5.58,1.9-8.22,3.32-2.65,1.43-6.6,1.85-8.09-.76-.74-1.31-.56-2.92-.36-4.41.7-5.12,1.42-10.33,2.36-15.48.87-4.8,1.92-9.55,3.29-14.15,2.6-8.8,6.38-17.08,12.28-24.1,6.1-7.26,14.93-15.13,12.24-24.23l-.66.8c-.77-6.4-7.51-10.52-13.91-11.3-3.68-.44-7.38-.12-11.09.24-2.73.25-5.46.53-8.2.52-6.44-.02-13.62-2.21-16.54-7.95-2.24-4.39-1.4-9.65-.52-14.51,1.13-6.18,2.56-12.89,7.39-16.93.75-.62,1.55-1.15,2.38-1.61,3.67-2.02,8.1-2.62,12.32-3.12-2.64-1.12-2.58-5.27-.51-7.27,2.07-1.99,5.17-2.37,8.04-2.52h.01c14.52,22.89,22.92,50.04,22.92,79.16Z"/>
  <path class="cls-3" d="M204.75,191.42l-.11,6.41c12.66,1.39,23.48-12.8,35.92-9.12,3.16.94,6.63,4.56,5.33,7.84-.77,1.94-2.81,2.59-4.4,3.67-7.13,4.83-4.85,17.25-5.11,27.02-.32,12.12-6.32,23.41-15.38,28.97-4,2.45-8.61,3.91-11.9,7.45-4.77,5.13-5.75,13.36-7.37,20.77s-5,15.39-11.54,16.85c-5.05-2.87-6.3-10.33-7.33-16.6s-3.75-13.82-9.23-14.67c-3.74-.58-6.9,2.39-9.59,5.18-5.79,6.01-11.57,12.02-17.36,18.03-3.52-5.9,2.84-12.45,3.3-19.32.26-3.84-1.42-7.84-.75-11.59.46-2.57,1.95-4.63,3.19-6.78,2.41-4.18,3.95-8.97,5.73-13.59,7.43-19.35,19.27-36.15,34.1-48.4,3.48-2.87,7.59-5.61,11.97-4.61l.54,2.51Z"/>
  <g>
    <path class="cls-5" d="M51.55,166.12c-16.72-9.92-33.93-19.1-51.55-27.33,7.21-7.05,10.89-10.44,18.4-16.97,10.32,6.58,20.49,13.41,30.47,20.49.19-.15.28-.23.46-.38-4.87-11.31-9.45-22.74-13.75-34.28,7.57-5.92,11.42-8.75,19.24-14.17,9.72,7.44,19.24,15.13,28.55,23.07.2-.13.3-.19.49-.32-3.85-11.5-7.44-23.08-10.76-34.74,8.23-5.09,12.4-7.51,20.85-12.08,3.17,19.17,6.96,38.1,11.43,57.02-7.65,4.63-11.43,7.07-18.85,12.2-9.05-6.82-18.16-13.42-27.45-19.9-.26.19-.39.29-.65.48,3.41,10.82,6.97,21.51,10.75,32.2-7.19,5.63-10.72,8.58-17.64,14.72Z"/>
    <path class="cls-5" d="M127.61,114.04c-8.38-16.37-16.76-32.74-25.14-49.12,8.25-4.22,12.42-6.22,20.83-9.96,1.63,3.68,2.45,5.51,4.09,9.19.28-.12.41-.18.69-.31-.26-3.86.66-7.23,2.77-10.06,2.11-2.83,5.08-5.02,8.87-6.51,1.02-.4,2.09-.76,3.21-1.08,1.12-.32,2.19-.55,3.2-.7,2.15,5.72,3.22,8.57,5.37,14.29-1.12.11-2.53.4-4.22.88-1.7.48-3.18.98-4.45,1.48-2.51,1.01-4.59,2.37-6.22,4.06-1.63,1.69-2.67,3.54-3.13,5.53-.46,1.99-.23,3.99.66,6.01,4.04,9.13,8.08,18.26,12.12,27.4-7.53,3.33-11.27,5.11-18.64,8.89Z"/>
    <path class="cls-5" d="M188.62,90.45c-3.9,1.18-7.52,1.72-10.9,1.6-3.38-.12-6.35-.98-8.91-2.62-2.56-1.64-4.49-4.15-5.75-7.57-1.06-2.88-1.33-5.53-.79-7.97.54-2.43,1.71-4.67,3.53-6.69,1.81-2.02,4.1-3.84,6.85-5.44,2.75-1.6,5.81-3.02,9.13-4.25,3.72-1.38,6.72-2.53,8.98-3.47,2.26-.94,3.85-1.83,4.78-2.69.92-.86,1.25-1.84.98-2.93-.02-.07-.03-.1-.04-.17-.45-1.79-1.58-2.98-3.42-3.55-1.84-.57-4.12-.5-6.81.24-2.91.79-5.1,1.95-6.57,3.42-1.47,1.48-2.18,3.14-2.14,4.98-8.02,2.17-12.01,3.37-19.94,5.97-.55-3.36-.05-6.73,1.57-10.09,1.62-3.36,4.42-6.51,8.42-9.37,4-2.86,9.2-5.22,15.56-6.95,4.54-1.24,8.85-1.9,12.88-2.02,4.03-.12,7.65.31,10.81,1.23,3.17.93,5.74,2.37,7.72,4.3,1.98,1.93,3.23,4.34,3.78,7.21,2.35,12.28,4.71,24.55,7.06,36.83-7.5,1.43-11.24,2.24-18.67,4.07-.74-2.99-1.1-4.48-1.84-7.46-.2.05-.3.07-.49.12-.68,2.09-1.71,3.98-3.11,5.68s-3.14,3.17-5.26,4.43c-2.11,1.26-4.59,2.3-7.43,3.16ZM191.5,77.63c2.17-.61,4.03-1.52,5.59-2.73,1.56-1.21,2.71-2.59,3.44-4.17.73-1.58.89-3.24.45-4.98-.51-2.04-.76-3.05-1.27-5.09-.54.41-1.21.82-2,1.24-.79.42-1.66.86-2.61,1.31-.95.45-1.93.88-2.95,1.31-1.02.42-2,.83-2.92,1.22-1.88.79-3.44,1.68-4.65,2.61-1.21.93-2.05,1.93-2.51,2.98-.46,1.05-.51,2.15-.16,3.3.54,1.74,1.7,2.83,3.47,3.3,1.77.47,3.81.37,6.12-.29Z"/>
    <path class="cls-5" d="M240.79,98.79c-3.92-24.98-7.84-49.96-11.76-74.94,9.12-1.42,13.7-2.01,22.87-2.93.38,3.76.57,5.64.95,9.4.28-.03.42-.04.7-.07.76-1.76,1.93-3.5,3.53-5.2,1.6-1.7,3.72-3.16,6.38-4.35,2.66-1.19,5.92-1.9,9.76-2.09,5.08-.25,9.88.61,14.31,2.55,4.43,1.94,7.97,5.05,10.58,9.27,2.61,4.21,3.79,9.58,3.67,16.07-.12,6.25-1.43,11.45-3.82,15.64-2.39,4.19-5.49,7.34-9.33,9.51-3.84,2.17-8.04,3.34-12.71,3.57-3.19.16-5.97-.12-8.38-.85-2.41-.74-4.47-1.77-6.2-3.1-1.73-1.34-3.12-2.8-4.16-4.41-.17.02-.25.03-.42.04.99,9.83,1.98,19.65,2.97,29.48-7.6.76-11.39,1.24-18.95,2.42ZM254.46,48.38c.3,2.95,1.06,5.48,2.24,7.57,1.18,2.1,2.74,3.66,4.66,4.71,1.92,1.05,4.13,1.48,6.67,1.3,2.56-.18,4.7-.91,6.45-2.21,1.74-1.3,3.04-3.06,3.89-5.3.85-2.24,1.23-4.84,1.12-7.81-.11-2.97-.69-5.52-1.76-7.66-1.07-2.14-2.59-3.76-4.57-4.86-1.97-1.1-4.37-1.56-7.16-1.37-2.76.19-5.06.97-6.88,2.3-1.82,1.33-3.13,3.14-3.93,5.41-.8,2.27-1.03,4.9-.72,7.9Z"/>
    <path class="cls-5" d="M355.82,16.8c-3.32-.48-6.05-1.67-8.23-3.59-2.18-1.92-3.15-4.03-2.88-6.33.27-2.28,1.7-4.1,4.35-5.43,2.65-1.32,5.71-1.75,9.12-1.26,3.45.5,6.27,1.78,8.42,3.79,2.15,2.02,3,4.18,2.6,6.47-.4,2.26-1.92,3.99-4.54,5.22-2.62,1.23-5.56,1.59-8.84,1.12ZM336.85,76.44c2.14-18.26,4.28-36.53,6.43-54.79,9.25,1.08,13.87,1.75,23.06,3.34-3.15,18.12-6.3,36.23-9.45,54.35-7.99-1.38-12-1.96-20.04-2.9Z"/>
    <path class="cls-5" d="M420.98,38.24c-1.56,4.93-2.34,7.4-3.89,12.33-14.41-4.3-28.8-7.97-43.51-11.1,1.01-5.07,1.51-7.61,2.51-12.68,15.18,3.23,30.02,7.02,44.89,11.45ZM388.44,15.87c9.41,2.08,14.09,3.25,23.39,5.86-4.61,16.38-9.22,32.76-13.82,49.13-.29,1.04-.32,1.93-.1,2.68.22.75.68,1.36,1.38,1.85.7.49,1.58.89,2.66,1.2.77.23,1.61.41,2.52.55.91.14,1.59.23,2.06.27-.28,5.22-.44,7.83-.8,13.04-1-.07-2.4-.2-4.19-.37-1.79-.17-3.87-.56-6.24-1.14-4.63-1.13-8.43-2.63-11.45-4.59-3.01-1.95-5.13-4.31-6.35-7.12-1.22-2.81-1.42-6.03-.55-9.66,3.83-17.24,7.66-34.48,11.49-51.72Z"/>
    <path class="cls-5" d="M487.18,101.17l15.53-27.24c8.29,4.73,12.38,7.22,20.45,12.46-10,15.43-20,30.87-30.01,46.3-6.69-4.35-10.09-6.42-16.96-10.36l5.11-8.91c-.24-.14-.36-.21-.61-.35-2.96,2.2-6.45,3.29-10.45,3.36-4,.07-8.13-1-12.47-3.18-3.94-1.98-7.06-4.41-9.38-7.38-2.33-2.97-3.74-6.24-4.24-9.84s.02-7.32,1.63-11.17c4.6-10.78,9.21-21.56,13.81-32.34,8.69,3.71,13,5.69,21.51,9.91-4.69,9.47-9.39,18.95-14.08,28.42-1.3,2.7-1.47,5.24-.54,7.64.93,2.4,2.83,4.34,5.73,5.88,1.89,1,3.77,1.58,5.65,1.73,1.88.15,3.64-.17,5.27-.97,1.63-.8,2.98-2.12,4.03-3.97Z"/>
    <path class="cls-5" d="M492.34,157.11c14.52-20.71,29.04-41.41,43.55-62.12,7.85,5.51,11.71,8.4,19.3,14.41-2.34,2.96-3.51,4.45-5.86,7.41.23.18.34.27.57.46,1.81-.7,3.91-1.09,6.32-1.15,2.4-.05,5.04.46,7.89,1.56,2.85,1.1,5.83,2.99,8.89,5.7,4.05,3.57,7.11,7.76,9.14,12.46,2.03,4.7,2.56,9.59,1.62,14.57-.95,4.98-3.8,9.71-8.44,14.25-4.47,4.37-9.12,7.09-13.89,8.28-4.77,1.19-9.35,1.1-13.8-.23s-8.49-3.62-12.21-6.9c-2.54-2.24-4.46-4.49-5.78-6.78-1.31-2.29-2.16-4.54-2.54-6.76-.38-2.22-.4-4.28-.07-6.18-.14-.11-.21-.17-.35-.28-6.13,7.75-12.26,15.49-18.39,23.24-6.28-4.98-9.48-7.37-15.98-11.94ZM537.91,130.9c-1.84,2.33-3.03,4.68-3.6,7.04-.57,2.36-.49,4.61.23,6.76.72,2.15,2.1,4.08,4.15,5.81,2.07,1.76,4.21,2.81,6.45,3.17,2.24.36,4.46.06,6.68-.91,2.22-.97,4.33-2.54,6.32-4.74,1.99-2.2,3.34-4.46,4.02-6.78.68-2.32.66-4.61-.08-6.85-.73-2.24-2.24-4.34-4.49-6.25-2.23-1.89-4.52-3.02-6.84-3.4-2.32-.38-4.57-.04-6.76,1.01-2.19,1.04-4.21,2.76-6.08,5.12Z"/>
  </g>
  <path class="cls-3" d="M331.5,156.33c13.21,12.26,29.41,21.27,46.79,26.04.58.16,1.19.31,1.76.15,2.25-.63.97-4.07-.73-5.67-13.03-12.29-29.28-21.12-46.67-25.39l-1.15,4.87Z"/>
</svg>